<svg width="24" height="24" viewBox="0 0 24 24" fill="none" xmlns="http://www.w3.org/2000/svg">
<path d="M8.841 18.4719C8.8626 18.1695 8.9058 17.868 8.9706 17.571C9.0273 17.3055 9.1992 16.554 9.4512 15.465L9.4575 15.438L9.8058 13.9368C9.8769 13.6308 9.9318 13.3932 9.9687 13.314C9.79393 12.91 9.70682 12.4735 9.7131 12.0333C9.7131 10.83 10.3935 9.8976 11.2755 9.8976C11.5995 9.8922 11.9091 10.0326 12.1233 10.281C12.3375 10.5285 12.4365 10.8606 12.3951 11.1774C12.3951 11.5851 12.3186 11.8956 11.9874 13.0089C11.9235 13.2231 11.8794 13.3725 11.838 13.5228C11.7921 13.692 11.7525 13.845 11.7192 13.9926C11.6328 14.34 11.712 14.7099 11.9325 14.988C12.0395 15.1239 12.1776 15.2321 12.3352 15.3036C12.4927 15.375 12.6651 15.4075 12.8379 15.3984C14.1807 15.3984 15.1779 13.6119 15.1779 11.3052C15.1779 9.5322 14.0169 8.3586 12.0891 8.3586C11.6065 8.34066 11.1255 8.42306 10.6764 8.6006C10.2273 8.77813 9.81988 9.04693 9.48 9.39C9.13284 9.74058 8.85894 10.1568 8.67429 10.6143C8.48964 11.0718 8.39793 11.5616 8.4045 12.0549C8.38213 12.5866 8.545 13.1095 8.8653 13.5345C9.0282 13.6605 9.0903 13.8792 9.0228 14.0655C8.9859 14.2167 8.8968 14.5623 8.8644 14.6775C8.85501 14.7341 8.83255 14.7877 8.7988 14.8341C8.76505 14.8805 8.72095 14.9184 8.67 14.9448C8.62073 14.9705 8.56604 14.9841 8.51047 14.9844C8.4549 14.9847 8.40006 14.9717 8.3505 14.9466C7.3065 14.5155 6.7341 13.3464 6.7341 11.8506C6.7341 9.1641 8.976 6.825 12.3069 6.825C15.1284 6.825 17.2398 8.9211 17.2398 11.451C17.2398 14.6298 15.501 16.9446 13.0188 16.9446C12.6657 16.9548 12.3152 16.8821 11.9954 16.7322C11.6756 16.5823 11.3954 16.3594 11.1774 16.0815L11.1387 16.2408L10.9524 17.0076L10.9506 17.0139C10.8192 17.5539 10.7274 17.9292 10.6914 18.0705C10.596 18.39 10.4754 18.7032 10.3314 19.0065C12.1223 19.4328 14.0085 19.157 15.6023 18.2356C17.1961 17.3143 18.3764 15.8174 18.9007 14.0527C19.4249 12.288 19.2533 10.3895 18.4211 8.74741C17.5889 7.10531 16.1593 5.84437 14.4261 5.22373C12.693 4.6031 10.7879 4.66993 9.10248 5.41048C7.41706 6.15103 6.07932 7.50905 5.36422 9.20542C4.64911 10.9018 4.61096 12.8077 5.25761 14.5313C5.90425 16.2549 7.18656 17.6654 8.841 18.4728V18.4719ZM12 21C7.0293 21 3 16.9707 3 12C3 7.0293 7.0293 3 12 3C16.9707 3 21 7.0293 21 12C21 16.9707 16.9707 21 12 21Z" fill="#050505"/>
</svg>
